<?xml version="1.0" encoding="iso-8859-1"?>
<!-- Generator: Adobe Illustrator 19.0.0, SVG Export Plug-In . SVG Version: 6.00 Build 0)  -->
<svg version="1.1" id="Layer_1" xmlns="http://www.w3.org/2000/svg" xmlns:xlink="http://www.w3.org/1999/xlink" x="0px" y="0px"
	 viewBox="0 0 512 512" style="enable-background:new 0 0 512 512;" xml:space="preserve">
<path style="fill:#FF6464;" d="M255.999,484.53c45.346,0,118.292-6.318,192.225-110.063c85.735-120.306,66.54-263.85-24.643-305.248
	C362.244,41.372,304.528,72.711,256,72.711S149.756,41.372,88.419,69.219C-2.766,110.618-21.96,254.162,63.774,374.468
	C137.707,478.213,210.654,484.53,255.999,484.53z"/>
<path style="fill:#D2555A;" d="M202.471,65.191C167.03,58.1,128.509,51.018,88.42,69.218
	C-2.765,110.617-21.96,254.162,63.775,374.468c73.932,103.745,146.88,110.063,192.224,110.063c4.006,0,8.238-0.055,12.657-0.217
	C74.21,326.464,122.876,100.957,202.471,65.191z"/>
<g>
	<path style="fill:#2D2B29;" d="M505.114,160.31c-12.164-45.301-39.786-79.669-77.779-96.774
		c-43.551-19.607-85.188-11.329-121.923-4.023c-12.314,2.449-24.147,4.797-35.384,5.985c4.815-14.506,12.44-23.203,22.63-30.987
		c3.51-2.682,4.182-7.702,1.501-11.212c-2.683-3.511-7.702-4.183-11.212-1.501c-13.576,10.371-23.899,22.736-29.691,44.469
		c-14.504-0.359-30.155-3.47-46.668-6.754c-36.736-7.306-78.373-15.585-121.923,4.023C46.671,80.641,19.049,115.01,6.886,160.309
		c-18.284,68.092,0.353,149.868,49.853,218.75c33.317,46.362,70.473,78.689,110.437,96.083
		c33.816,14.718,63.878,16.703,88.825,16.703s55.009-1.985,88.825-16.703c39.964-17.394,77.12-49.721,110.437-96.083
		C504.76,310.178,523.398,228.402,505.114,160.31z M442.271,369.725C375.07,463.24,310.399,475.849,256,475.849
		S136.931,463.24,69.729,369.725C23.001,304.699,5.284,227.964,22.335,164.458C33.23,123.881,57.698,93.22,91.231,78.122
		c17.748-7.991,35.16-10.789,52.279-10.789c20.387,0,40.355,3.97,59.958,7.869c16.217,3.225,31.639,6.288,46.629,6.958
		c-1.049,7.395-1.716,15.663-1.971,24.971c-6.641-1.271-13.767-3.858-21.063-6.658c-4.124-1.58-8.75,0.478-10.333,4.603
		c-1.583,4.124,0.479,8.75,4.603,10.333c11.734,4.501,23.215,8.542,34.668,8.542c11.453,0,22.934-4.041,34.668-8.542
		c4.124-1.583,6.185-6.209,4.603-10.333c-1.583-4.124-6.208-6.184-10.333-4.603c-7.208,2.765-14.251,5.327-20.824,6.614
		c0.259-9.671,0.961-17.965,2.082-25.183c13.641-1.001,27.663-3.784,42.337-6.703c36.063-7.171,73.352-14.586,112.236,2.92
		c33.533,15.097,58,45.76,68.896,86.336C506.716,227.964,488.998,304.699,442.271,369.725z"/>
	<path style="fill:#2D2B29;" d="M145.101,405.837c-17.059-14.093-33.654-32.318-49.325-54.168
		c-4.112-5.735-8.039-11.662-11.669-17.617c-2.299-3.772-7.22-4.966-10.993-2.667c-3.771,2.3-4.966,7.221-2.667,10.993
		c3.836,6.294,7.985,12.557,12.329,18.614c16.475,22.97,34.016,42.207,52.136,57.177c1.491,1.232,3.295,1.833,5.09,1.833
		c2.304,0,4.589-0.99,6.171-2.904C148.987,413.693,148.507,408.65,145.101,405.837z"/>
	<path style="fill:#2D2B29;" d="M464.336,163.074c-4.266,1.146-6.796,5.534-5.65,9.799c8.949,33.317,6.652,71.389-6.644,110.101
		c-1.435,4.178,0.789,8.727,4.967,10.163c0.861,0.295,1.737,0.436,2.599,0.436c3.321,0,6.425-2.085,7.565-5.402
		c14.334-41.737,16.743-83.042,6.963-119.447C472.99,164.458,468.604,161.929,464.336,163.074z"/>
	<path style="fill:#2D2B29;" d="M457.87,147.013c3.826-2.208,5.139-7.099,2.931-10.925c-4.136-7.171-8.933-13.772-14.255-19.621
		c-2.972-3.266-8.032-3.505-11.299-0.533c-3.267,2.973-3.505,8.033-0.533,11.299c4.551,5.001,8.666,10.67,12.23,16.848
		c1.481,2.568,4.17,4.003,6.936,4.003C455.237,148.084,456.61,147.739,457.87,147.013z"/>
</g>
<g>
</g>
<g>
</g>
<g>
</g>
<g>
</g>
<g>
</g>
<g>
</g>
<g>
</g>
<g>
</g>
<g>
</g>
<g>
</g>
<g>
</g>
<g>
</g>
<g>
</g>
<g>
</g>
<g>
</g>
</svg>
